<svg xmlns="http://www.w3.org/2000/svg" viewBox="0 0 492 507" role="img" aria-labelledby="title desc">
  <title id="title">일비 퍼퓨머리 하우스 로고</title>
  <desc id="desc">딥 그린 배경 위에 크림색 ILLVII 심볼이 있는 로고</desc>
  <rect width="492" height="507" fill="#1f4a31"/>
  <g fill="#e9e1cf">
    <path d="M 109.0 224.0 L 108.0 225.0 L 108.0 228.0 L 104.0 239.0 L 103.0 249.0 L 102.0 250.0 L 102.0 256.0 L 101.0 257.0 L 101.0 288.0 L 102.0 289.0 L 103.0 302.0 L 104.0 303.0 L 106.0 314.0 L 107.0 315.0 L 110.0 326.0 L 120.0 347.0 L 133.0 365.0 L 137.0 369.0 L 138.0 369.0 L 138.0 225.0 L 137.0 224.0 Z" />
    <path d="M 138.0 186.0 L 137.0 185.0 L 129.0 185.0 L 123.0 193.0 L 117.0 205.0 L 137.0 205.0 L 138.0 204.0 Z" />
    <path d="M 150.0 162.0 L 150.0 382.0 L 162.0 392.0 L 171.0 397.0 L 171.0 148.0 Z" />
    <path d="M 188.0 139.0 L 188.0 406.0 L 198.0 411.0 L 209.0 414.0 L 209.0 132.0 Z" />
    <path d="M 225.0 129.0 L 245.0 419.0 L 268.0 419.0 L 272.0 390.0 L 290.0 133.0 L 267.0 128.0 L 260.0 296.0 L 256.0 300.0 L 246.0 127.0 Z" />
    <path d="M 317.0 143.0 L 315.0 143.0 L 312.0 179.0 L 310.0 189.0 L 309.0 208.0 L 307.0 218.0 L 302.0 276.0 L 300.0 286.0 L 300.0 296.0 L 298.0 305.0 L 297.0 324.0 L 287.0 414.0 L 293.0 413.0 L 308.0 407.0 L 313.0 349.0 L 315.0 340.0 L 320.0 281.0 L 332.0 175.0 L 332.0 164.0 L 334.0 153.0 Z" />
    <path d="M 349.0 166.0 L 349.0 380.0 L 350.0 380.0 L 361.0 369.0 L 369.0 358.0 L 369.0 187.0 L 364.0 180.0 L 350.0 166.0 Z" />
    <path d="M 385.0 215.0 L 385.0 330.0 L 386.0 330.0 L 386.0 328.0 L 388.0 325.0 L 388.0 323.0 L 391.0 316.0 L 391.0 313.0 L 393.0 309.0 L 393.0 305.0 L 394.0 304.0 L 394.0 300.0 L 395.0 299.0 L 395.0 295.0 L 396.0 294.0 L 396.0 284.0 L 397.0 283.0 L 397.0 262.0 L 396.0 261.0 L 396.0 251.0 L 395.0 250.0 L 393.0 236.0 L 391.0 232.0 L 391.0 229.0 L 390.0 228.0 L 388.0 220.0 L 386.0 217.0 L 386.0 215.0 Z" />
  </g>
</svg>
